<mxfile host="app.diagrams.net" modified="2023-09-14T18:20:46.301Z" agent="Mozilla/5.0 (Windows NT 10.0; Win64; x64; rv:109.0) Gecko/20100101 Firefox/117.0" version="21.7.5" etag="ZkTmc0m_Mpsl6sI0Ab5d" type="github">
  <diagram name="Страница — 1" id="LYylbxCTv69gnLbvuIWt">
    <mxGraphModel>
      <root>
        <mxCell id="0" />
        <mxCell id="1" parent="0" />
      </root>
    </mxGraphModel>
  </diagram>
</mxfile>
